# xmcd
#
# Track frame offsets:
#	150
#	47235
#	91218
#	132836
#	168926
#	184664
#	216269
#	254492
#
# Disc length: 4138 seconds
#
# Revision: 1
# Processed by: cddbd v1.5.2PL0 Copyright (c) Steve Scherf et al.
# Submitted via: audiograbber 1.83.01
#
DISCID=6d102808
DTITLE=Grateful Dead - 82-09-21 Madison Square Garden, New York NY
DYEAR=1900
DGENRE=
TTITLE0=Playing In The Band
TTITLE1=Crazy Fingers
TTITLE2=Me and My Uncle > Big River
TTITLE3=West LA Fadeaway
TTITLE4=Beat It On Down The Line
TTITLE5=Loser
TTITLE6=Looks Like Rain
TTITLE7=China Cat Sunflower > I Know You Rider
EXTD=
EXTT0=
EXTT1=
EXTT2=
EXTT3=
EXTT4=
EXTT5=
EXTT6=
EXTT7=
PLAYORDER=
